<svg width="128" height="128" viewBox="0 0 128 128" fill="none" xmlns="http://www.w3.org/2000/svg">
<rect width="128" height="128" rx="20" fill="white"/>
<path d="M45.984 116.312C44.6173 116.312 43.1413 115.629 41.556 114.262C40.0253 112.841 38.604 110.927 37.292 108.522L28.518 92.614H21.712L21.466 104.832C21.466 106.909 21.6027 108.413 21.876 109.342C22.1493 110.217 22.6687 110.818 23.434 111.146C24.1993 111.419 25.5113 111.556 27.37 111.556L27.534 111.884L26.796 115.328C26.14 115.273 24.828 115.219 22.86 115.164C20.892 115.109 18.842 115.082 16.71 115.082C14.7967 115.082 13.102 115.109 11.626 115.164C10.15 115.219 9.166 115.273 8.674 115.328L9.412 111.638C11.1613 111.419 12.4733 111.119 13.348 110.736C14.2227 110.353 14.824 109.752 15.152 108.932C15.48 108.057 15.644 106.8 15.644 105.16L15.726 70.72C15.726 68.9707 15.5073 67.7953 15.07 67.194C14.6873 66.5927 13.8947 66.292 12.692 66.292L9.904 66.456L9.74 66.128L10.314 62.52C10.97 62.5747 12.2 62.6293 14.004 62.684C15.808 62.7387 17.612 62.766 19.416 62.766C21.2747 62.766 23.2153 62.7387 25.238 62.684C27.3153 62.5747 28.7367 62.4927 29.502 62.438C34.586 62.438 38.604 63.586 41.556 65.882C44.508 68.178 45.984 71.3213 45.984 75.312C45.984 78.592 44.918 81.5987 42.786 84.332C40.7087 87.0653 37.7567 89.3067 33.93 91.056L42.95 105.324C44.5353 107.948 46.066 109.779 47.542 110.818C49.0727 111.802 50.9313 112.294 53.118 112.294L53.446 112.622L52.954 115.41L45.984 116.312ZM30.322 88.842C31.0873 88.514 32.0987 88.0493 33.356 87.448C34.6133 86.792 35.898 85.562 37.21 83.758C38.522 81.954 39.178 79.6307 39.178 76.788C39.178 69.572 34.176 65.964 24.172 65.964C23.6253 65.964 23.2427 66.1007 23.024 66.374C22.86 66.5927 22.7507 67.0847 22.696 67.85C22.204 76.214 21.9307 82.938 21.876 88.022L30.322 88.842ZM74.3009 115.984C70.9116 115.984 67.9049 115.246 65.2809 113.77C62.6569 112.239 60.6342 110.107 59.2129 107.374C57.7916 104.586 57.0809 101.415 57.0809 97.862C57.0809 94.1993 57.9009 90.7553 59.5409 87.53C61.2356 84.3047 63.4769 81.7353 66.2649 79.822C69.0529 77.9087 72.0322 76.952 75.2029 76.952C79.1936 76.952 82.2276 77.9633 84.3049 79.986C86.3822 82.0087 87.4209 84.9607 87.4209 88.842C87.4209 90.4273 87.2569 91.7667 86.9289 92.86L85.8629 93.844H63.2309C63.1762 99.1467 64.2149 103.247 66.3469 106.144C68.5336 108.987 71.5676 110.408 75.4489 110.408C78.5102 110.408 81.8449 109.561 85.4529 107.866L85.9449 108.03L86.8469 110.408C84.8789 111.829 82.6922 113.114 80.2869 114.262C77.9362 115.41 75.9409 115.984 74.3009 115.984ZM78.4009 90.072C79.2209 89.9627 79.7676 89.7713 80.0409 89.498C80.3142 89.2247 80.4509 88.678 80.4509 87.858C80.4509 85.6713 79.8496 84.004 78.6469 82.856C77.4989 81.708 75.8316 81.134 73.6449 81.134C71.0756 81.134 68.8616 82.0087 67.0029 83.758C65.1989 85.5073 64.0509 87.858 63.5589 90.81L78.4009 90.072ZM103.103 115.984C101.627 115.984 100.479 115.547 99.6588 114.672C98.8934 113.743 98.5108 112.622 98.5108 111.31C98.5108 109.889 98.9754 108.686 99.9048 107.702C100.834 106.718 102.064 106.226 103.595 106.226C105.071 106.226 106.219 106.691 107.039 107.62C107.859 108.495 108.269 109.588 108.269 110.9C108.269 112.321 107.777 113.524 106.793 114.508C105.863 115.492 104.633 115.984 103.103 115.984Z" fill="#3E8FB0"/>
</svg>
